<svg width="87" height="70" viewBox="0 0 87 70" fill="none" xmlns="http://www.w3.org/2000/svg">
<path d="M5.705 28.6301C4.04833 28.6301 2.71833 28.1168 1.715 27.0901C0.711667 26.0401 0.14 24.6634 1.30385e-08 22.9601L3.115 22.0151C3.30167 23.2984 3.61667 24.2668 4.06 24.9201C4.50333 25.5501 5.15667 25.8651 6.02 25.8651C6.69667 25.8651 7.21 25.6784 7.56 25.3051C7.91 24.9084 8.085 24.3834 8.085 23.7301C8.085 23.1468 7.95667 22.6218 7.7 22.1551C7.44333 21.6884 7.02333 21.2101 6.44 20.7201L2.975 17.7451C2.275 17.1384 1.68 16.4618 1.19 15.7151C0.723333 14.9684 0.49 14.0001 0.49 12.8101C0.49 11.7368 0.7 10.8384 1.12 10.1151C1.56333 9.36843 2.17 8.80843 2.94 8.4351C3.73333 8.03843 4.655 7.8401 5.705 7.8401C7.385 7.8401 8.66833 8.3651 9.555 9.4151C10.4417 10.4418 10.955 11.6901 11.095 13.1601L8.435 14.1051C8.34167 13.4051 8.20167 12.7984 8.015 12.2851C7.82833 11.7484 7.56 11.3401 7.21 11.0601C6.86 10.7568 6.405 10.6051 5.845 10.6051C5.23833 10.6051 4.74833 10.8151 4.375 11.2351C4.025 11.6318 3.85 12.1101 3.85 12.6701C3.85 13.0201 3.92 13.3701 4.06 13.7201C4.22333 14.0468 4.49167 14.3734 4.865 14.7001L8.435 17.9901C8.925 18.4334 9.38 18.9118 9.8 19.4251C10.2433 19.9384 10.605 20.5218 10.885 21.1751C11.165 21.8284 11.305 22.5868 11.305 23.4501C11.305 24.5934 11.0717 25.5501 10.605 26.3201C10.1383 27.0901 9.485 27.6734 8.645 28.0701C7.805 28.4434 6.825 28.6301 5.705 28.6301ZM17.0108 28.6301C16.2175 28.6301 15.5992 28.4201 15.1558 28.0001C14.7125 27.5801 14.3975 27.0551 14.2108 26.4251C14.0475 25.7951 13.9658 25.1534 13.9658 24.5001V8.1201H17.7108V23.3801C17.7108 24.1034 17.8158 24.6751 18.0258 25.0951C18.2358 25.4918 18.6675 25.6901 19.3208 25.6901C19.7408 25.6901 20.1725 25.5734 20.6158 25.3401C21.0825 25.0834 21.5258 24.7801 21.9458 24.4301V8.1201H25.6908V28.3501H21.9458V26.3551C21.2925 26.9851 20.5458 27.5218 19.7058 27.9651C18.8892 28.4084 17.9908 28.6301 17.0108 28.6301ZM29.5209 28.3501V8.1201H33.2659V10.1151C33.9425 9.4851 34.6892 8.94843 35.5059 8.5051C36.3225 8.06176 37.2209 7.8401 38.2009 7.8401C39.0175 7.8401 39.6359 8.0501 40.0559 8.4701C40.4992 8.8901 40.8025 9.4151 40.9659 10.0451C41.1525 10.6751 41.2459 11.3168 41.2459 11.9701V28.3501H37.5009V13.0551C37.5009 12.3318 37.3959 11.7718 37.1859 11.3751C36.9759 10.9784 36.5442 10.7801 35.8909 10.7801C35.4709 10.7801 35.0275 10.9084 34.5609 11.1651C34.1175 11.3984 33.6859 11.6901 33.2659 12.0401V28.3501H29.5209ZM49.5917 28.6301C47.8884 28.6301 46.6167 28.0118 45.7767 26.7751C44.9367 25.5151 44.5167 23.3918 44.5167 20.4051V16.4851C44.5167 14.9451 44.6451 13.5218 44.9017 12.2151C45.1584 10.8851 45.6367 9.82343 46.3367 9.0301C47.0601 8.23676 48.1101 7.8401 49.4867 7.8401C50.1634 7.8401 50.7817 7.99176 51.3417 8.2951C51.9017 8.59843 52.4034 8.97176 52.8467 9.4151V9.54866e-05H56.5917V28.3501H52.8467V27.0551C52.4034 27.5218 51.9134 27.9068 51.3767 28.2101C50.8634 28.4901 50.2684 28.6301 49.5917 28.6301ZM50.5367 25.6901C50.8867 25.6901 51.2601 25.6318 51.6567 25.5151C52.0534 25.3751 52.4501 25.1768 52.8467 24.9201V11.6551C52.5201 11.4218 52.1584 11.2234 51.7617 11.0601C51.3651 10.8734 50.9334 10.7801 50.4667 10.7801C49.6034 10.7801 49.0201 11.2001 48.7167 12.0401C48.4134 12.8568 48.2617 13.8484 48.2617 15.0151V20.7201C48.2617 21.6534 48.3084 22.5051 48.4017 23.2751C48.5184 24.0218 48.7401 24.6168 49.0667 25.0601C49.3934 25.4801 49.8834 25.6901 50.5367 25.6901ZM63.4301 28.6301C62.6368 28.6301 61.9368 28.4084 61.3301 27.9651C60.7235 27.4984 60.2451 26.9151 59.8951 26.2151C59.5451 25.4918 59.3701 24.7334 59.3701 23.9401C59.3701 22.6801 59.5801 21.6184 60.0001 20.7551C60.4201 19.8918 60.9918 19.1684 61.7151 18.5851C62.4618 17.9784 63.3135 17.4534 64.2701 17.0101C65.2501 16.5668 66.2768 16.1351 67.3501 15.7151V14.2801C67.3501 13.4634 67.3035 12.7868 67.2101 12.2501C67.1168 11.7134 66.9185 11.3168 66.6151 11.0601C66.3351 10.7801 65.9035 10.6401 65.3201 10.6401C64.8068 10.6401 64.3868 10.7568 64.0601 10.9901C63.7568 11.2234 63.5351 11.5618 63.3951 12.0051C63.2551 12.4251 63.1851 12.9268 63.1851 13.5101V14.5251L59.4751 14.3851C59.5218 12.1451 60.0351 10.5001 61.0151 9.4501C61.9951 8.37676 63.5118 7.8401 65.5651 7.8401C67.5718 7.8401 68.9951 8.38843 69.8351 9.4851C70.6751 10.5818 71.0951 12.1684 71.0951 14.2451V23.4851C71.0951 24.1151 71.1068 24.7218 71.1301 25.3051C71.1768 25.8884 71.2235 26.4368 71.2701 26.9501C71.3401 27.4401 71.3985 27.9068 71.4451 28.3501H68.0151C67.9451 27.9768 67.8518 27.5101 67.7351 26.9501C67.6418 26.3668 67.5718 25.8418 67.5251 25.3751C67.2918 26.1684 66.8368 26.9151 66.1601 27.6151C65.5068 28.2918 64.5968 28.6301 63.4301 28.6301ZM64.9001 25.4101C65.2735 25.4101 65.6235 25.3051 65.9501 25.0951C66.2768 24.8851 66.5685 24.6518 66.8251 24.3951C67.0818 24.1151 67.2568 23.8934 67.3501 23.7301V17.9901C66.7668 18.3168 66.2185 18.6434 65.7051 18.9701C65.1918 19.2968 64.7368 19.6468 64.3401 20.0201C63.9668 20.3701 63.6635 20.7784 63.4301 21.2451C63.2201 21.6884 63.1151 22.2018 63.1151 22.7851C63.1151 23.6018 63.2668 24.2434 63.5701 24.7101C63.8735 25.1768 64.3168 25.4101 64.9001 25.4101ZM74.323 33.4251V30.5551C75.233 30.5551 75.9564 30.5084 76.493 30.4151C77.0297 30.3451 77.4147 30.1934 77.648 29.9601C77.8814 29.7501 77.998 29.4468 77.998 29.0501C77.998 28.8401 77.9164 28.3734 77.753 27.6501C77.5897 26.9268 77.4147 26.1568 77.228 25.3401L73.168 8.1201H76.948L79.678 23.2401L82.303 8.1201H86.083L81.253 29.4701C81.043 30.4501 80.658 31.2201 80.098 31.7801C79.538 32.3634 78.8147 32.7834 77.928 33.0401C77.0647 33.2968 76.0147 33.4251 74.778 33.4251H74.323ZM6.16984 69.3501V51.8851H3.75484V49.1201H6.16984V48.0701C6.16984 47.3234 6.21651 46.5651 6.30984 45.7951C6.40318 45.0018 6.63651 44.2668 7.00984 43.5901C7.40651 42.9134 8.04818 42.3651 8.93484 41.9451C9.82151 41.5251 11.0582 41.3151 12.6448 41.3151C13.4848 41.3151 14.4298 41.3851 15.4798 41.5251C16.5532 41.6651 17.7548 41.8868 19.0848 42.1901V69.3501H15.3398V44.2551C14.9198 44.2084 14.5348 44.1734 14.1848 44.1501C13.8348 44.1268 13.5082 44.1151 13.2048 44.1151C12.1315 44.1151 11.3615 44.2784 10.8948 44.6051C10.4282 44.9318 10.1482 45.3868 10.0548 45.9701C9.96151 46.5534 9.91484 47.2301 9.91484 48.0001C9.91484 48.1868 9.91484 48.3734 9.91484 48.5601C9.91484 48.7468 9.91484 48.9334 9.91484 49.1201H12.9948V51.8851H9.91484V69.3501H6.16984ZM28.5575 69.6301C27.0642 69.6301 25.8859 69.3268 25.0225 68.7201C24.1592 68.1134 23.5409 67.2501 23.1675 66.1301C22.8175 65.0101 22.6425 63.6918 22.6425 62.1751V56.2951C22.6425 54.7784 22.8175 53.4601 23.1675 52.3401C23.5409 51.2201 24.1592 50.3568 25.0225 49.7501C25.8859 49.1434 27.0642 48.8401 28.5575 48.8401C30.0509 48.8401 31.2175 49.1434 32.0575 49.7501C32.9209 50.3568 33.5275 51.2201 33.8775 52.3401C34.2509 53.4601 34.4375 54.7784 34.4375 56.2951V62.1751C34.4375 63.6918 34.2509 65.0101 33.8775 66.1301C33.5275 67.2501 32.9209 68.1134 32.0575 68.7201C31.2175 69.3268 30.0509 69.6301 28.5575 69.6301ZM28.5575 66.8651C29.2809 66.8651 29.7825 66.6551 30.0625 66.2351C30.3659 65.8151 30.5409 65.2668 30.5875 64.5901C30.6575 63.8901 30.6925 63.1668 30.6925 62.4201V56.0851C30.6925 55.3151 30.6575 54.5918 30.5875 53.9151C30.5409 53.2384 30.3659 52.6901 30.0625 52.2701C29.7825 51.8268 29.2809 51.6051 28.5575 51.6051C27.8342 51.6051 27.3209 51.8268 27.0175 52.2701C26.7142 52.6901 26.5275 53.2384 26.4575 53.9151C26.4109 54.5918 26.3875 55.3151 26.3875 56.0851V62.4201C26.3875 63.1668 26.4109 63.8901 26.4575 64.5901C26.5275 65.2668 26.7142 65.8151 27.0175 66.2351C27.3209 66.6551 27.8342 66.8651 28.5575 66.8651ZM40.1715 69.3501L36.9165 49.1201H39.9965L42.0965 64.0301L44.7915 49.1201H47.6615L50.3565 63.9601L52.4565 49.1201H55.5365L52.1765 69.3501H49.0265L46.2615 55.0701L43.5315 69.3501H40.1715ZM64.0027 69.6301C62.416 69.6301 61.191 69.3268 60.3277 68.7201C59.4644 68.0901 58.8577 67.1801 58.5077 65.9901C58.181 64.7768 58.0177 63.2951 58.0177 61.5451V56.9251C58.0177 55.1284 58.1927 53.6351 58.5427 52.4451C58.8927 51.2551 59.4994 50.3568 60.3627 49.7501C61.2494 49.1434 62.4627 48.8401 64.0027 48.8401C65.706 48.8401 66.9544 49.1901 67.7477 49.8901C68.5644 50.5901 69.101 51.6051 69.3577 52.9351C69.6144 54.2418 69.7427 55.8168 69.7427 57.6601V59.3051H61.7627V63.3651C61.7627 64.1818 61.8327 64.8468 61.9727 65.3601C62.136 65.8734 62.381 66.2584 62.7077 66.5151C63.0577 66.7484 63.501 66.8651 64.0377 66.8651C64.5977 66.8651 65.0177 66.7368 65.2977 66.4801C65.601 66.2001 65.7994 65.8151 65.8927 65.3251C66.0094 64.8118 66.0677 64.2168 66.0677 63.5401V62.3151H69.7077V63.0851C69.7077 65.1151 69.276 66.7134 68.4127 67.8801C67.5494 69.0468 66.0794 69.6301 64.0027 69.6301ZM61.7627 57.2751H66.0677V55.4551C66.0677 54.6151 66.021 53.9151 65.9277 53.3551C65.8344 52.7718 65.636 52.3401 65.3327 52.0601C65.0527 51.7568 64.5977 51.6051 63.9677 51.6051C63.361 51.6051 62.8944 51.7451 62.5677 52.0251C62.2644 52.3051 62.0544 52.7834 61.9377 53.4601C61.821 54.1134 61.7627 55.0234 61.7627 56.1901V57.2751ZM73.2391 69.3501V49.1201H76.9841V51.9901C77.7308 50.7534 78.4775 49.9251 79.2241 49.5051C79.9708 49.0851 80.7175 48.8751 81.4641 48.8751C81.5575 48.8751 81.6391 48.8751 81.7091 48.8751C81.8025 48.8751 81.9191 48.8868 82.0591 48.9101V53.0401C81.7791 52.9234 81.4525 52.8301 81.0791 52.7601C80.7291 52.6668 80.3675 52.6201 79.9941 52.6201C79.4108 52.6201 78.8741 52.7601 78.3841 53.0401C77.9175 53.2968 77.4508 53.8101 76.9841 54.5801V69.3501H73.2391Z" fill="#D1CDC5"/>
</svg>
